<svg width="36" height="36" viewBox="0 0 36 36" fill="none" xmlns="http://www.w3.org/2000/svg">
<path d="M31.6202 12.8701V23.13C31.6202 24.81 30.7202 26.3701 29.2652 27.2251L20.3552 32.3701C18.9002 33.2101 17.1002 33.2101 15.6302 32.3701L6.72023 27.2251C5.26523 26.3851 4.36523 24.825 4.36523 23.13V12.8701C4.36523 11.1901 5.26523 9.62999 6.72023 8.77499L15.6302 3.63C17.0852 2.79 18.8852 2.79 20.3552 3.63L29.2652 8.77499C30.7202 9.62999 31.6202 11.1751 31.6202 12.8701Z" stroke="#545454" stroke-width="1.5" stroke-linecap="round" stroke-linejoin="round"/>
<path d="M17.9999 16.5C19.9301 16.5 21.4949 14.9352 21.4949 13.0049C21.4949 11.0747 19.9301 9.51001 17.9999 9.51001C16.0696 9.51001 14.5049 11.0747 14.5049 13.0049C14.5049 14.9352 16.0696 16.5 17.9999 16.5Z" stroke="#545454" stroke-width="1.5" stroke-linecap="round" stroke-linejoin="round"/>
<path d="M24 24.99C24 22.29 21.315 20.1001 18 20.1001C14.685 20.1001 12 22.29 12 24.99" stroke="#545454" stroke-width="1.5" stroke-linecap="round" stroke-linejoin="round"/>
</svg>
