<svg width="36" height="36" viewBox="0 0 36 36" fill="none" xmlns="http://www.w3.org/2000/svg">
<path d="M27.7048 25.245L28.2898 29.985C28.4398 31.23 27.1048 32.1 26.0398 31.455L19.7548 27.72C19.0648 27.72 18.3898 27.675 17.7298 27.585C18.8398 26.28 19.4998 24.63 19.4998 22.845C19.4998 18.585 15.8098 15.135 11.2498 15.135C9.50977 15.135 7.90478 15.63 6.56978 16.5C6.52478 16.125 6.50977 15.75 6.50977 15.36C6.50977 8.53499 12.4348 3 19.7548 3C27.0748 3 32.9998 8.53499 32.9998 15.36C32.9998 19.41 30.9148 22.995 27.7048 25.245Z" stroke="#545454" stroke-width="2" stroke-linecap="round" stroke-linejoin="round"/>
<path d="M19.5 22.8449C19.5 24.6299 18.84 26.28 17.73 27.585C16.245 29.385 13.89 30.5399 11.25 30.5399L7.335 32.8649C6.675 33.2699 5.835 32.715 5.925 31.95L6.3 28.995C4.29 27.6 3 25.3649 3 22.8449C3 20.2049 4.41001 17.88 6.57001 16.5C7.90501 15.63 9.51 15.135 11.25 15.135C15.81 15.135 19.5 18.5849 19.5 22.8449Z" stroke="#545454" stroke-width="1.5" stroke-linecap="round" stroke-linejoin="round"/>
</svg>
