<svg width="197" height="39" viewBox="0 0 197 39" fill="none" xmlns="http://www.w3.org/2000/svg">
<path d="M10.412 30.504C16.892 30.504 20.636 26.58 20.636 22.116C20.636 18.336 18.656 16.104 15.344 14.772L11.996 13.44C9.62 12.504 7.964 11.928 7.964 10.416C7.964 9.012 9.152 8.22 11.132 8.22C13.22 8.22 14.876 8.94 16.64 10.272L19.844 6.24C17.504 3.9 14.228 2.712 11.132 2.712C5.444 2.712 1.412 6.312 1.412 10.812C1.412 14.7 4.04 17.04 6.848 18.156L10.268 19.596C12.572 20.568 14.048 21.072 14.048 22.62C14.048 24.06 12.932 24.96 10.556 24.96C8.432 24.96 5.948 23.844 4.076 22.224L0.404 26.652C3.176 29.208 6.92 30.504 10.412 30.504ZM24.5842 30H30.9922V16.32C32.2162 15.132 33.0802 14.484 34.5202 14.484C36.1402 14.484 36.8962 15.276 36.8962 18.12V30H43.3042V17.328C43.3042 12.216 41.3962 9.012 36.9322 9.012C34.1602 9.012 32.0722 10.416 30.3802 12.072H30.2722L29.8042 9.516H24.5842V30ZM57.1715 30.504C62.3555 30.504 67.1795 26.544 67.1795 19.74C67.1795 12.972 62.3555 9.012 57.1715 9.012C51.9515 9.012 47.1275 12.972 47.1275 19.74C47.1275 26.544 51.9515 30.504 57.1715 30.504ZM57.1715 25.32C54.7595 25.32 53.6795 23.16 53.6795 19.74C53.6795 16.356 54.7595 14.196 57.1715 14.196C59.5475 14.196 60.6275 16.356 60.6275 19.74C60.6275 23.16 59.5475 25.32 57.1715 25.32ZM71.2014 30H77.6094V18.3C78.6534 15.6 80.4894 14.628 82.0014 14.628C82.9014 14.628 83.5134 14.772 84.2694 14.952L85.3134 9.444C84.7374 9.192 84.0534 9.012 82.8294 9.012C80.7774 9.012 78.5094 10.344 76.9974 13.08H76.8894L76.4214 9.516H71.2014V30ZM87.9006 30H94.2006V24.924L96.5766 22.224L101.005 30H107.953L100.321 18.048L107.449 9.516H100.429L94.3806 17.22H94.2006V1.236H87.9006V30ZM118.528 30.504C120.904 30.504 123.712 29.676 125.836 28.164L123.712 24.312C122.236 25.176 120.868 25.608 119.392 25.608C116.8 25.608 114.856 24.456 114.28 21.648H126.304C126.448 21.144 126.592 20.028 126.592 18.876C126.592 13.296 123.712 9.012 117.808 9.012C112.876 9.012 108.088 13.116 108.088 19.74C108.088 26.544 112.624 30.504 118.528 30.504ZM114.172 17.436C114.604 15.024 116.152 13.908 117.916 13.908C120.256 13.908 121.156 15.42 121.156 17.436H114.172ZM136.518 30.504C137.958 30.504 139.002 30.252 139.686 29.964L138.93 25.248C138.57 25.32 138.426 25.32 138.21 25.32C137.706 25.32 137.094 24.924 137.094 23.556V1.236H130.686V23.34C130.686 27.624 132.126 30.504 136.518 30.504ZM142.639 30H149.047V9.516H142.639V30ZM145.843 6.672C147.967 6.672 149.407 5.376 149.407 3.36C149.407 1.38 147.967 0.0839989 145.843 0.0839989C143.683 0.0839989 142.279 1.38 142.279 3.36C142.279 5.376 143.683 6.672 145.843 6.672ZM154.205 30H160.613V16.32C161.837 15.132 162.701 14.484 164.141 14.484C165.761 14.484 166.517 15.276 166.517 18.12V30H172.925V17.328C172.925 12.216 171.017 9.012 166.553 9.012C163.781 9.012 161.693 10.416 160.001 12.072H159.893L159.425 9.516H154.205V30ZM185.245 38.604C192.373 38.604 196.873 35.544 196.873 31.224C196.873 27.516 193.993 25.968 188.953 25.968H185.713C183.517 25.968 182.689 25.536 182.689 24.6C182.689 23.88 182.905 23.592 183.337 23.16C184.237 23.412 185.065 23.52 185.749 23.52C190.285 23.52 193.921 21.432 193.921 16.644C193.921 15.672 193.669 14.736 193.381 14.16H196.513V9.516H188.989C188.053 9.192 186.937 9.012 185.749 9.012C181.321 9.012 177.181 11.46 177.181 16.428C177.181 18.84 178.513 20.748 179.989 21.756V21.9C178.621 22.836 177.685 24.276 177.685 25.716C177.685 27.444 178.477 28.524 179.557 29.244V29.424C177.649 30.396 176.677 31.764 176.677 33.456C176.677 37.128 180.529 38.604 185.245 38.604ZM185.749 19.668C184.273 19.668 183.157 18.588 183.157 16.428C183.157 14.376 184.273 13.296 185.749 13.296C187.261 13.296 188.377 14.376 188.377 16.428C188.377 18.588 187.261 19.668 185.749 19.668ZM186.253 34.608C183.661 34.608 181.933 33.888 181.933 32.448C181.933 31.764 182.221 31.188 182.869 30.612C183.517 30.792 184.309 30.864 185.785 30.864H187.729C189.637 30.864 190.717 31.116 190.717 32.34C190.717 33.636 188.881 34.608 186.253 34.608Z" fill="url(#paint0_linear_290_5934)"/>
<defs>
<linearGradient id="paint0_linear_290_5934" x1="198" y1="14" x2="-1" y2="14" gradientUnits="userSpaceOnUse">
<stop stop-color="#63EDED"/>
<stop offset="1" stop-color="#546FFF"/>
</linearGradient>
</defs>
</svg>
